<mxfile host="Electron" agent="Mozilla/5.0 (Windows NT 10.0; Win64; x64) AppleWebKit/537.36 (KHTML, like Gecko) draw.io/26.2.2 Chrome/134.0.6998.178 Electron/35.1.2 Safari/537.36" version="26.2.2">
  <diagram name="Page-1" id="qyM3Yxx946-zMOCuKyHc">
    <mxGraphModel dx="985" dy="580" grid="0" gridSize="10" guides="1" tooltips="1" connect="1" arrows="1" fold="1" page="0" pageScale="1" pageWidth="850" pageHeight="1100" math="0" shadow="0">
      <root>
        <mxCell id="0" />
        <mxCell id="1" parent="0" />
        <mxCell id="m2xHsOOfQNXQ7nw6RgMP-1" value="Host A" style="rounded=1;whiteSpace=wrap;html=1;" parent="1" vertex="1">
          <mxGeometry x="35" y="158" width="120" height="60" as="geometry" />
        </mxCell>
        <mxCell id="m2xHsOOfQNXQ7nw6RgMP-2" value="Attacker" style="rounded=1;whiteSpace=wrap;html=1;" parent="1" vertex="1">
          <mxGeometry x="318" y="158" width="120" height="60" as="geometry" />
        </mxCell>
        <mxCell id="m2xHsOOfQNXQ7nw6RgMP-3" value="Host B" style="rounded=1;whiteSpace=wrap;html=1;" parent="1" vertex="1">
          <mxGeometry x="601" y="158" width="120" height="60" as="geometry" />
        </mxCell>
        <mxCell id="m2xHsOOfQNXQ7nw6RgMP-5" value="" style="endArrow=none;html=1;rounded=0;entryX=0.5;entryY=1;entryDx=0;entryDy=0;exitX=0.037;exitY=-0.005;exitDx=0;exitDy=0;exitPerimeter=0;" parent="1" target="m2xHsOOfQNXQ7nw6RgMP-1" edge="1">
          <mxGeometry width="50" height="50" relative="1" as="geometry">
            <mxPoint x="95.1070000000002" y="689.7000000000003" as="sourcePoint" />
            <mxPoint x="136" y="350" as="targetPoint" />
          </mxGeometry>
        </mxCell>
        <mxCell id="m2xHsOOfQNXQ7nw6RgMP-6" value="" style="endArrow=none;html=1;rounded=0;entryX=0.5;entryY=1;entryDx=0;entryDy=0;exitX=0.5;exitY=0;exitDx=0;exitDy=0;" parent="1" edge="1">
          <mxGeometry width="50" height="50" relative="1" as="geometry">
            <mxPoint x="378" y="690" as="sourcePoint" />
            <mxPoint x="377.66" y="218" as="targetPoint" />
          </mxGeometry>
        </mxCell>
        <mxCell id="m2xHsOOfQNXQ7nw6RgMP-7" value="" style="endArrow=none;html=1;rounded=0;entryX=0.5;entryY=1;entryDx=0;entryDy=0;exitX=0.963;exitY=-0.005;exitDx=0;exitDy=0;exitPerimeter=0;" parent="1" edge="1">
          <mxGeometry width="50" height="50" relative="1" as="geometry">
            <mxPoint x="660.8929999999998" y="689.7000000000003" as="sourcePoint" />
            <mxPoint x="660.66" y="218" as="targetPoint" />
          </mxGeometry>
        </mxCell>
        <mxCell id="m2xHsOOfQNXQ7nw6RgMP-8" value="Broadcast (with Username)" style="endArrow=classic;html=1;rounded=0;verticalAlign=bottom;" parent="1" edge="1">
          <mxGeometry width="50" height="50" relative="1" as="geometry">
            <mxPoint x="95" y="257" as="sourcePoint" />
            <mxPoint x="378" y="257" as="targetPoint" />
          </mxGeometry>
        </mxCell>
        <mxCell id="AkdcI4l9LhBiqYsBLk9R-1" value="Broadcast (with Username)" style="endArrow=classic;html=1;rounded=0;verticalAlign=bottom;" edge="1" parent="1">
          <mxGeometry width="50" height="50" relative="1" as="geometry">
            <mxPoint x="95" y="301" as="sourcePoint" />
            <mxPoint x="661" y="301" as="targetPoint" />
          </mxGeometry>
        </mxCell>
        <mxCell id="AkdcI4l9LhBiqYsBLk9R-4" value="Host B RSA Public key" style="endArrow=classic;html=1;rounded=0;verticalAlign=bottom;" edge="1" parent="1">
          <mxGeometry width="50" height="50" relative="1" as="geometry">
            <mxPoint x="661" y="433" as="sourcePoint" />
            <mxPoint x="378" y="433" as="targetPoint" />
          </mxGeometry>
        </mxCell>
        <mxCell id="AkdcI4l9LhBiqYsBLk9R-5" value="Attacker RSA Public key" style="endArrow=classic;html=1;rounded=0;verticalAlign=bottom;" edge="1" parent="1">
          <mxGeometry width="50" height="50" relative="1" as="geometry">
            <mxPoint x="378" y="345" as="sourcePoint" />
            <mxPoint x="95" y="345" as="targetPoint" />
          </mxGeometry>
        </mxCell>
        <mxCell id="AkdcI4l9LhBiqYsBLk9R-6" value="Attacker RSA Public key" style="endArrow=classic;html=1;rounded=0;verticalAlign=bottom;" edge="1" parent="1">
          <mxGeometry width="50" height="50" relative="1" as="geometry">
            <mxPoint x="378" y="477" as="sourcePoint" />
            <mxPoint x="661" y="477" as="targetPoint" />
          </mxGeometry>
        </mxCell>
        <mxCell id="AkdcI4l9LhBiqYsBLk9R-7" value="Host A RSA Public key" style="endArrow=classic;html=1;rounded=0;verticalAlign=bottom;" edge="1" parent="1">
          <mxGeometry width="50" height="50" relative="1" as="geometry">
            <mxPoint x="95" y="389" as="sourcePoint" />
            <mxPoint x="378" y="389" as="targetPoint" />
          </mxGeometry>
        </mxCell>
        <mxCell id="AkdcI4l9LhBiqYsBLk9R-11" value="Host B Sync request (with OTP)" style="endArrow=classic;html=1;rounded=0;verticalAlign=bottom;" edge="1" parent="1">
          <mxGeometry width="50" height="50" relative="1" as="geometry">
            <mxPoint x="660" y="521" as="sourcePoint" />
            <mxPoint x="377" y="521" as="targetPoint" />
          </mxGeometry>
        </mxCell>
        <mxCell id="AkdcI4l9LhBiqYsBLk9R-16" value="Attacker Sync request (with OTP from Host B)" style="endArrow=classic;html=1;rounded=0;verticalAlign=bottom;" edge="1" parent="1">
          <mxGeometry width="50" height="50" relative="1" as="geometry">
            <mxPoint x="378" y="565" as="sourcePoint" />
            <mxPoint x="95" y="565" as="targetPoint" />
          </mxGeometry>
        </mxCell>
        <mxCell id="AkdcI4l9LhBiqYsBLk9R-17" value="Clipboard data" style="endArrow=classic;html=1;rounded=0;verticalAlign=bottom;" edge="1" parent="1">
          <mxGeometry width="50" height="50" relative="1" as="geometry">
            <mxPoint x="95" y="609" as="sourcePoint" />
            <mxPoint x="378" y="609" as="targetPoint" />
          </mxGeometry>
        </mxCell>
        <mxCell id="AkdcI4l9LhBiqYsBLk9R-18" value="Clipboard data" style="endArrow=classic;html=1;rounded=0;verticalAlign=bottom;" edge="1" parent="1">
          <mxGeometry width="50" height="50" relative="1" as="geometry">
            <mxPoint x="378" y="653" as="sourcePoint" />
            <mxPoint x="661" y="653" as="targetPoint" />
          </mxGeometry>
        </mxCell>
      </root>
    </mxGraphModel>
  </diagram>
</mxfile>
